<svg xmlns="http://www.w3.org/2000/svg" viewBox="0 0 100 100">
  <defs>
    <linearGradient id="g" x1="0%" y1="0%" x2="100%" y2="100%">
      <stop offset="0%" stop-color="#6366f1" />
      <stop offset="100%" stop-color="#8b5cf6" />
    </linearGradient>
  </defs>
  <rect width="100" height="100" rx="24" fill="url(#g)"/>
  <path fill="white" transform="translate(25, 25) scale(0.1)" d="M500.5 251.4L266.3 361.6c-6.4 3-13.8 3-20.2 0L11.5 251.4c-11.4-5.4-15-18.4-15-27.4s3.6-22 15-27.4l234.8-110.2c6.4-3 13.8-3 20.2 0l234.8 110.2c11.4 5.4 15 18.4 15 27.4s-3.6 22-15 27.4zM11.5 356.6C2.6 352.4 0 344 0 336s2.6-16.4 11.5-20.6l54.8-25.7 180 84.5c12.7 6 27.6 6 40.3 0l180-84.5 54.8 25.7c8.9 4.2 11.5 12.6 11.5 20.6s-2.6 16.4-11.5 20.6L266.3 466.8c-6.4 3-13.8 3-20.2 0L11.5 356.6z"/>
</svg>
